<?xml version="1.0" encoding="UTF-8" standalone="no"?>
<!DOCTYPE svg PUBLIC "-//W3C//DTD SVG 1.1//EN"
 "http://www.w3.org/Graphics/SVG/1.1/DTD/svg11.dtd">
<!-- Generated by graphviz version 2.40.1 (20161225.0304)
 -->
<!-- Title: tree Pages: 1 -->
<svg width="134pt" height="204pt"
 viewBox="0.00 0.00 134.00 204.00" xmlns="http://www.w3.org/2000/svg" xmlns:xlink="http://www.w3.org/1999/xlink">
<g id="graph0" class="graph" transform="scale(1 1) rotate(0) translate(4 200)">
<title>tree</title>
<polygon fill="#ffffff" stroke="transparent" points="-4,4 -4,-200 130,-200 130,4 -4,4"/>
<!-- a -->
<g id="node1" class="node">
<title>a</title>
<polygon fill="none" stroke="#000000" points="57,-167 57,-189 69,-189 69,-167 57,-167"/>
<text text-anchor="start" x="59.8927" y="-173.4" font-family="Times,serif" font-size="14.00" fill="#000000">a</text>
</g>
<!-- aleaves -->
<g id="node2" class="node">
<title>aleaves</title>
<polygon fill="none" stroke="#000000" points="21,-95 21,-117 33,-117 33,-95 21,-95"/>
<text text-anchor="start" x="23.8927" y="-101.4" font-family="Times,serif" font-size="14.00" fill="#000000">c</text>
</g>
<!-- a&#45;&gt;aleaves -->
<g id="edge3" class="edge">
<title>a:portroot&#45;&gt;aleaves:portroot</title>
<path fill="none" stroke="#000000" d="M57.375,-166.75C52.0171,-156.0342 43.8239,-139.6479 37.2966,-126.5932"/>
<polygon fill="#000000" stroke="#000000" points="40.307,-124.7876 32.7043,-117.4086 34.046,-127.9182 40.307,-124.7876"/>
</g>
<!-- b -->
<g id="node3" class="node">
<title>b</title>
<polygon fill="none" stroke="#000000" points="93,-95 93,-117 106,-117 106,-95 93,-95"/>
<text text-anchor="start" x="96" y="-101.4" font-family="Times,serif" font-size="14.00" fill="#000000">b</text>
</g>
<!-- a&#45;&gt;b -->
<g id="edge2" class="edge">
<title>a:portroot&#45;&gt;b:portroot</title>
<path fill="none" stroke="#000000" d="M68.625,-166.75C73.9829,-156.0342 82.1761,-139.6479 88.7034,-126.5932"/>
<polygon fill="#000000" stroke="#000000" points="91.954,-127.9182 93.2957,-117.4086 85.693,-124.7876 91.954,-127.9182"/>
</g>
<!-- bleaves -->
<g id="node4" class="node">
<title>bleaves</title>
<polygon fill="none" stroke="#000000" points="93,-26 93,-48 106,-48 106,-26 93,-26"/>
<text text-anchor="start" x="96" y="-32.4" font-family="Times,serif" font-size="14.00" fill="#000000">d</text>
<polygon fill="none" stroke="#000000" points="93,-4 93,-26 106,-26 106,-4 93,-4"/>
<text text-anchor="start" x="96.3927" y="-10.4" font-family="Times,serif" font-size="14.00" fill="#000000">e</text>
</g>
<!-- b&#45;&gt;bleaves -->
<g id="edge1" class="edge">
<title>b:portroot&#45;&gt;bleaves:portroot</title>
<path fill="none" stroke="#000000" d="M99,-94.8763C99,-85.3908 99,-71.2663 99,-58.2727"/>
<polygon fill="#000000" stroke="#000000" points="102.5001,-58.2047 99,-48.2048 95.5001,-58.2048 102.5001,-58.2047"/>
</g>
</g>
</svg>